<svg id="Layer_1" data-name="Layer 1" xmlns="http://www.w3.org/2000/svg" viewBox="0 0 745.34 251.96"><defs><style>.cls-1{fill:#37423f;}.cls-2{fill:#889893;}.cls-3{fill:#d41f27;}.cls-4{fill:#b5c5c1;}.cls-5{fill:#fff;}</style></defs><polygon class="cls-1" points="0 211.93 59.99 199.25 59.99 199.25 59.99 59.11 166.16 59.11 166.16 88.7 92.53 88.7 92.53 113.89 157.33 113.89 157.33 143.49 92.53 143.49 92.53 169.66 167.14 169.66 167.14 177.5 235.22 162.66 235.22 0 0 0 0 211.93"/><path class="cls-2" d="M254.59,158.44l50.12-10.93a75.39,75.39,0,0,1-3.2-22v-.39a73.25,73.25,0,0,1,5.4-28.1,72.5,72.5,0,0,1,15-23,69.89,69.89,0,0,1,23-15.61,75.09,75.09,0,0,1,29.59-5.71,92.72,92.72,0,0,1,17.84,1.6,74.83,74.83,0,0,1,14.7,4.4,64.5,64.5,0,0,1,12.23,6.82,83.74,83.74,0,0,1,10.38,8.78l.89.89-21,24.17-1-.92a71.76,71.76,0,0,0-16.09-11.18,40.66,40.66,0,0,0-18.15-4,37.08,37.08,0,0,0-15.45,3.22,36.66,36.66,0,0,0-12.22,8.9,41.64,41.64,0,0,0-8,13.22,45.19,45.19,0,0,0-2.86,16.12v.39a46.08,46.08,0,0,0,2.46,15.06l151.54-33V0H254.59Z"/><polygon class="cls-3" points="167.14 199.25 59.99 199.25 0 211.93 0 251.96 235.22 251.96 235.22 162.66 167.14 177.5 167.14 199.25"/><path class="cls-3" d="M338.67,141.36a42.58,42.58,0,0,0,7.9,13.33A36.49,36.49,0,0,0,374.33,167c7.59,0,14.09-1.4,19.3-4.16a76.58,76.58,0,0,0,15.91-11.58l1-.88,21.07,21.28-.88.94a101.34,101.34,0,0,1-11.15,10.35,67.08,67.08,0,0,1-12.72,7.92,66.13,66.13,0,0,1-15.14,5,90.88,90.88,0,0,1-18.33,1.7A72.82,72.82,0,0,1,344.74,192a69,69,0,0,1-37.83-38.23c-.83-2-1.56-4.11-2.2-6.22l-50.12,10.93V252H489.81V107.16l-151.54,33C338.4,140.58,338.53,141,338.67,141.36Z"/><path class="cls-3" d="M648.25,116.87c3.72-3.3,5.53-7.6,5.53-13.13v-.4c0-6.16-1.88-10.63-5.77-13.66s-9.53-4.63-16.64-4.63h-28.7v36.78H632C639,121.83,644.52,120.16,648.25,116.87Z"/><path class="cls-3" d="M674.93,69.4c8.08,8.08,12.18,19,12.18,32.37v.4c0,11.38-2.84,20.8-8.44,28a48.29,48.29,0,0,1-20.3,15.22l34.07,49.8H653.82l-29.45-44h-21.7v44H569.74V89.74l-59.62,13V252H745.34V51.46L672.65,67.3C673.43,68,674.2,68.67,674.93,69.4Z"/><path class="cls-4" d="M510.12,0V102.73l59.62-13V55.07h64.18c16.34,0,29.34,4.12,38.73,12.23l72.69-15.84V0Z"/><polygon class="cls-5" points="92.53 169.66 92.53 143.49 157.33 143.49 157.33 113.89 92.53 113.89 92.53 88.7 166.16 88.7 166.16 59.11 59.99 59.11 59.99 199.25 67.35 199.25 167.14 199.25 167.14 177.5 167.14 169.66 92.53 169.66"/><path class="cls-5" d="M410.5,150.37l-1,.88a76.58,76.58,0,0,1-15.91,11.58c-5.21,2.76-11.71,4.16-19.3,4.16a36.49,36.49,0,0,1-27.76-12.3,42.58,42.58,0,0,1-7.9-13.33c-.14-.39-.27-.78-.4-1.16a46.08,46.08,0,0,1-2.46-15.06v-.39a45.19,45.19,0,0,1,2.86-16.12,41.64,41.64,0,0,1,8-13.22,36.66,36.66,0,0,1,12.22-8.9,37.08,37.08,0,0,1,15.45-3.22,40.66,40.66,0,0,1,18.15,4,71.76,71.76,0,0,1,16.09,11.18l1,.92,21-24.17-.89-.89a83.74,83.74,0,0,0-10.38-8.78,64.5,64.5,0,0,0-12.23-6.82,74.83,74.83,0,0,0-14.7-4.4,92.72,92.72,0,0,0-17.84-1.6,75.09,75.09,0,0,0-29.59,5.71,69.89,69.89,0,0,0-23,15.61,72.5,72.5,0,0,0-15,23,73.25,73.25,0,0,0-5.4,28.1v.39a75.39,75.39,0,0,0,3.2,22c.64,2.11,1.37,4.19,2.2,6.22A69,69,0,0,0,344.74,192a72.82,72.82,0,0,0,28.61,5.61,90.88,90.88,0,0,0,18.33-1.7,66.13,66.13,0,0,0,15.14-5,67.08,67.08,0,0,0,12.72-7.92,101.34,101.34,0,0,0,11.15-10.35l.88-.94Z"/><path class="cls-5" d="M658.37,145.41a48.29,48.29,0,0,0,20.3-15.22c5.6-7.22,8.44-16.64,8.44-28v-.4c0-13.39-4.1-24.29-12.18-32.37-.73-.73-1.5-1.42-2.28-2.1-9.39-8.11-22.39-12.23-38.73-12.23H569.74V195.21h32.93v-44h21.7l29.45,44h38.62Zm-4.59-41.67c0,5.53-1.81,9.83-5.53,13.13s-9.21,5-16.29,5H602.67V85.05h28.7c7.11,0,12.71,1.56,16.64,4.63s5.77,7.5,5.77,13.66Z"/></svg>