<?xml version="1.0" encoding="UTF-8"?> <svg xmlns="http://www.w3.org/2000/svg" width="160" height="42" viewBox="0 0 160 42" fill="none"><path d="M137.557 38.2217H158.97" stroke="white" stroke-width="0.810047" stroke-miterlimit="10" stroke-linecap="round"></path><path d="M1.3545 38.2217H101.31" stroke="white" stroke-width="0.810047" stroke-miterlimit="10" stroke-linecap="round"></path><path d="M26.6512 5.03857H1.3545" stroke="white" stroke-width="0.810047" stroke-miterlimit="10" stroke-linecap="round"></path><path d="M158.971 5.03857H63.2163" stroke="white" stroke-width="0.810047" stroke-miterlimit="10" stroke-linecap="round"></path><path d="M9.85237 31.045L8.76264 26.0384H3.97705L2.88732 31.045H1L5.04051 13.1519H7.69918L11.7397 31.045H9.85237ZM4.32169 24.3881H8.38846L6.34031 14.9895L4.31841 24.3881H4.32169Z" fill="#00C956"></path><path d="M23.1194 13.1519H25.0068V27.1035C25.0068 28.3625 24.6293 29.3816 23.8776 30.1509C23.1227 30.9234 22.0034 31.308 20.5133 31.308C19.0231 31.308 17.9039 30.9234 17.1489 30.1509C16.394 29.3783 16.0198 28.3625 16.0198 27.1035V13.1519H17.9071V27.0509C17.9071 28.7537 18.7769 29.6085 20.5133 29.6085C22.2496 29.6085 23.1194 28.757 23.1194 27.0509V13.1519Z" fill="#00C956"></path><path d="M29.5792 16.7747C29.5792 15.6044 29.9698 14.6839 30.7477 14.0199C31.5289 13.3525 32.6219 13.0205 34.03 13.0205C35.4381 13.0205 36.6296 13.1717 37.6045 13.4742V15.2855C36.6821 14.9502 35.5563 14.7793 34.227 14.7793C32.402 14.7793 31.4895 15.4729 31.4895 16.8569V18.1357C31.4895 18.757 31.611 19.2468 31.8473 19.6018C32.0869 19.9569 32.4906 20.2955 33.0585 20.6144L36.1438 22.3468C37.5782 23.1292 38.297 24.3094 38.297 25.8873V27.3239C38.297 28.5501 37.8802 29.5001 37.0465 30.174C36.2128 30.848 35.0114 31.1866 33.4425 31.1866C31.8736 31.1866 30.6296 31.009 29.7072 30.654V28.8427C30.7543 29.2339 31.9392 29.4278 33.2685 29.4278C35.3594 29.4278 36.4064 28.6914 36.4064 27.2187V26.101C36.4064 25.5158 36.3014 25.0523 36.088 24.717C35.8747 24.3784 35.4939 24.0595 34.9458 23.7571L31.89 22.0805C30.3473 21.2455 29.576 20.0029 29.576 18.3526V16.7813L29.5792 16.7747Z" fill="#00C956"></path><path d="M50.3426 13.1519V14.8284H46.8864V31.045H44.9728V14.8284H41.5165V13.1519H50.3426Z" fill="#00C956"></path><path d="M53.481 13.1519H55.3683V31.045H53.481V13.1519Z" fill="#00C956"></path><path d="M69.0885 28.0108L68.9014 22.1264V13.1519H70.7887V31.045H68.6093L64.9397 21.7779C64.7985 21.4065 64.0961 19.5491 62.839 16.2124L62.9998 22.0705V31.045H61.165V13.1519H63.3445C66.164 20.3249 68.0775 25.2757 69.0885 28.0108Z" fill="#00C956"></path><path d="M76.9822 16.906C76.9822 15.5746 77.4384 14.5358 78.3509 13.7896C79.2634 13.0433 80.6419 12.6719 82.4866 12.6719C83.6912 12.6719 84.7744 12.8067 85.7295 13.0729V16.002C84.666 15.6996 83.6518 15.5483 82.6868 15.5483C81.7218 15.5483 81.0653 15.6864 80.7207 15.9625C80.3761 16.2387 80.2021 16.643 80.2021 17.1756V26.6827C80.2021 27.7642 80.9734 28.3066 82.5161 28.3066C83.8094 28.3066 84.9089 28.1653 85.8116 27.8793V30.782C84.8531 31.0483 83.7273 31.1798 82.4341 31.1798C78.8006 31.1798 76.9854 29.7761 76.9854 26.972V16.906H76.9822Z" fill="white"></path><path d="M97.8539 31.045L96.9775 26.492H92.8845L92.0344 31.045H88.9753L92.7499 12.8066H97.1909L100.939 31.045H97.8539ZM93.3867 23.7766H96.4458L94.9031 15.6831L93.3867 23.7766Z" fill="white"></path><path d="M105.298 12.8066H110.668C112.103 12.8066 113.215 13.1617 114.006 13.8718C114.794 14.5818 115.188 15.5845 115.188 16.8797V21.3275C115.188 22.6227 114.794 23.6254 114.006 24.3355C113.219 25.0455 112.106 25.4006 110.668 25.4006H108.515V31.045H105.298V12.8066ZM111.998 17.1986C111.998 16.1335 111.44 15.6009 110.324 15.6009H108.515V22.6293H110.324C111.44 22.6293 111.998 22.0869 111.998 21.0054V17.1986Z" fill="white"></path><path d="M118.008 12.8066H121.224V31.045H118.008V12.8066Z" fill="white"></path><path d="M133.877 12.8066V15.6009H130.5V31.045H127.283V15.6009H123.906V12.8066H133.877Z" fill="white"></path><path d="M143.741 31.045L142.864 26.492H138.771L137.921 31.045H134.862L138.637 12.8066H143.078L146.826 31.045H143.741ZM139.274 23.7766H142.333L140.79 15.6831L139.274 23.7766Z" fill="white"></path><path d="M150.653 12.8066H153.87V28.3296H159V31.045H150.653V12.8066Z" fill="white"></path><path d="M107.242 34.6353H109.894C111.436 34.6353 112.178 35.467 112.178 36.5419C112.178 37.4492 111.624 37.9029 110.957 38.0706V38.1429C111.676 38.1823 112.461 38.8168 112.461 39.9378C112.461 41.0588 111.699 41.8905 110.019 41.8905H107.242V34.6385V34.6353ZM109.799 37.7747C110.534 37.7747 111.108 37.3276 111.108 36.6274C111.108 36.0258 110.695 35.5689 109.828 35.5689H108.335V37.7747H109.799ZM109.913 40.9503C110.964 40.9503 111.377 40.4934 111.377 39.8852C111.377 39.1948 110.829 38.6294 109.953 38.6294H108.338V40.9536H109.913V40.9503Z" fill="white"></path><path d="M113.405 41.8906L116.011 34.6387H117.275L119.881 41.8906H118.722L118.063 39.9708H115.233L114.567 41.8906H113.408H113.405ZM117.738 39.0503L116.671 35.9536H116.615L115.549 39.0503H117.741H117.738Z" fill="white"></path><path d="M126.964 41.8906H125.96L122.281 36.5717H122.215V41.8906H121.122V34.6387H122.133L125.819 39.9642H125.885V34.6387H126.968V41.8906H126.964Z" fill="white"></path><path d="M128.75 34.6351H129.843V38.1H129.932L132.968 34.6351H134.343L131.422 37.8995L134.353 41.8871H133.037L130.696 38.6457L129.84 39.6286V41.8838H128.747V34.6318L128.75 34.6351Z" fill="white"></path><path d="M58.8832 3.0992L50.8514 0.574491C50.7266 0.535042 50.5953 0.594215 50.5363 0.709273C49.1577 2.91839 47.4739 2.14914 46.929 2.07353L46.824 1.6659L47.1785 0.334512C47.2179 0.193155 47.1325 0.0485105 46.9914 0.00906198C46.9159 -0.0106623 46.8404 0.00248704 46.7813 0.0419356L45.6785 0.679687H44.3819L43.2791 0.0419356C43.22 0.00248704 43.1445 -0.0106623 43.069 0.00906198C42.9312 0.0485105 42.8425 0.193155 42.8819 0.334512L43.2364 1.6659L43.1314 2.07353C42.5865 2.14914 40.9027 2.91839 39.5241 0.709273C39.4651 0.597502 39.3305 0.538329 39.209 0.574491L31.1772 3.0992C31.0656 3.13536 30.9869 3.24055 30.9902 3.36219C30.9967 3.50683 31.1214 3.62189 31.2659 3.6186C31.2757 3.6186 33.4486 3.51341 35.1127 4.82836L35.139 4.84808C35.8414 5.41022 36.4486 6.22549 36.7572 7.41223C36.7801 7.49442 36.8425 7.56674 36.9278 7.59633C36.9935 7.61934 37.0624 7.61277 37.1215 7.58647C37.2298 7.54044 42.5471 4.44702 44.7988 9.29919C44.8086 9.31563 44.8218 9.33535 44.8382 9.3485C44.8677 9.3748 44.9005 9.39781 44.9399 9.41096H44.9531C44.976 9.42411 44.999 9.4274 45.0253 9.4274H45.0384C45.0614 9.4274 45.0844 9.4274 45.1106 9.41425H45.1237C45.1631 9.4011 45.196 9.3748 45.2255 9.3485C45.2419 9.33206 45.255 9.31563 45.2649 9.29919C47.5165 4.44702 52.8339 7.54044 52.9422 7.58647C53.0046 7.61277 53.0735 7.61934 53.1358 7.59633C53.2212 7.56674 53.2835 7.49442 53.3065 7.41223C53.6151 6.22549 54.2223 5.41351 54.9247 4.84808L54.951 4.82836C56.6151 3.51669 58.788 3.6186 58.7978 3.6186C58.9422 3.62518 59.067 3.51012 59.0735 3.36219C59.0735 3.24055 58.998 3.13536 58.8864 3.0992H58.8832Z" fill="white"></path></svg> 