<?xml version="1.0" encoding="UTF-8"?>
<svg id="Layer_1" xmlns="http://www.w3.org/2000/svg" version="1.1" viewBox="0 0 947.2 281">
  <defs>
    <style>
      .st0 { fill: #ec7247; }
      .st1 { fill: #fff; }
    </style>
  </defs>
  <path class="st1" d="M639,106.6h11.5c60.1,0,120.2,0,180.3,0,5.5,0,11.1,0,16.5-1.1,9.5-1.8,14.1-7.5,14.4-16.4.2-9.4-3.4-14.4-13.4-16.9-4.4-1.1-9.1-1.5-13.6-1.5-73.3,0-146.6,0-219.8-.2-6.4,0-9.7,1.9-12.7,7.6-28.6,54.6-57.4,109-86.2,163.4-1.4,2.7-2.8,5.4-4.3,8.1-15.6,29.3-32.3,35.9-70.3,28.7-15.4-2.9-23.3-16-30.2-29-24.8-46.8-49.5-93.7-74.3-140.6-5.6-10.6-11.4-21-16.7-31.7-2.3-4.7-5-6.6-10.5-6.6-67.1.2-134.3.1-201.4.3-4.8,0-9.8.8-14.5,1.9-8.7,1.9-12.6,7.8-12.7,16.7,0,8.8,3.5,15.2,12.2,17.1,7.1,1.5,14.5,2.3,21.8,2.3,52.4.2,104.9.1,157.3.1,3.6,0,7.2,0,12.1,0-4.6,15.7-8.8,30-13,44.3-10.5,35.8-21.2,71.6-31.4,107.5-1.6,5.7-4.3,8.3-9.9,8.7-11.3.7-22.6,2.2-33.9,2.3-59.5.3-119,.2-178.4.2-2.7,0-5.4-.3-9.3-.5,0-17.8,0-35.2,0-52.6q0-16.6,16.5-16.6c51.2,0,102.4,0,153.6,0,6.4,0,12.9,0,19.2-1,11.1-1.9,16.3-8.2,16.3-18.8,0-10.5-4.4-16-15.6-18.2-6-1.1-12.2-1.2-18.3-1.3-33.7-.6-67.4-.7-101.1-1.7-7.8-.2-15.8-2.2-23.4-4.4C21,146.5,1.9,123.4.2,90.4-1.8,51.7,14.3,25.5,48.7,11.3,70.4,2.3,93.2.3,116.3.2c69.6,0,139.2.2,208.8-.2,22.4-.1,38.1,9.5,48.7,28.6,28,50.3,55.9,100.7,83.8,151.1,1,1.9,2.1,3.7,3.6,6.3,1.4-2.2,2.6-3.7,3.5-5.4,28-50.3,55.9-100.7,83.8-151.1C559.6,9.4,575.9-.2,599.4,0c77.6.6,155.1.2,232.7.2,21.6,0,42.9,1.8,63.1,9.9,42.5,17.1,59.5,64,35.6,100.2-5.8,8.8-15.3,15.3-22.9,22.6,4,2.4,9.8,5.1,14.8,8.8,36.2,27.2,31.3,90.6-8.7,113.9-17.6,10.2-37.1,15-57.2,15.2-54.9.8-109.8.6-164.6.5-2.6,0-6.7-3.1-7.5-5.5-15.5-51.6-30.6-103.3-45.7-155-.2-.8,0-1.8,0-4.3ZM721.3,201.4c3.4.2,6.1.6,8.8.6,34.9,0,69.7.1,104.6,0,6,0,12.3-.8,18-2.6,7.7-2.4,10.4-9.1,10.3-16.7,0-7.8-3.8-13.5-11.4-16-3.4-1.1-7.2-1.9-10.8-1.9-38.8-.1-77.7,0-116.5,0-.8,0-1.7.6-2.9,1v35.8Z"/>
  <path class="st0" d="M261.6,271.2c16-54.5,31.5-107.2,47.6-161.8,2.5,3.9,4.1,6.2,5.5,8.8,13.4,25.2,26.9,50.2,39.8,75.6,2.2,4.4,2.8,10.7,1.7,15.5-4.5,18.7-9.8,37.3-15.2,55.8-.7,2.4-4,5.8-6.1,5.9-23.9.4-47.7.3-73.2.3Z"/>
  <path class="st0" d="M612.3,108.3c16.2,55.2,31.8,108.3,47.8,163h-48.2c-4,0-8,0-11.9,0q-17.7,0-22.2-16.7c-4.2-15.6-8.5-31.2-12.5-47-.7-3-.8-6.9.5-9.5,14.5-28.6,29.3-57.1,44.1-85.6.4-.8.9-1.6,2.4-4.2Z"/>
</svg>
